<svg xmlns="http://www.w3.org/2000/svg" viewBox="0 0 189 189"><defs><style>.cls-1{fill:#2b3277;}.cls-2{fill:#fff;}.cls-3{fill:none;stroke:#ed1c24;stroke-linecap:round;stroke-linejoin:round;stroke-width:0.75px;}.cls-4{fill:#ed1c24;}</style></defs><g id="Pin_2" data-name="Pin #2"><path class="cls-2" d="M50.63,72.1A4.69,4.69,0,0,1,52.45,76a4.24,4.24,0,0,1-1.64,3.39,8.34,8.34,0,0,1-1.35.74c-.09,0-.24.19-.09.52.47,1.09,1.38,3.09,2.67,5.54a16,16,0,0,0,2.14,3.32,2.34,2.34,0,0,0,1.87,1c.12,0,.32.13.32.22a.45.45,0,0,1-.26.33,7.07,7.07,0,0,1-2,.16c-2,0-3.72-.26-5.1-2.61-.65-1.1-1.7-3.29-2.93-5.81-.62-1.19-1.06-1.48-1.52-1.51a1,1,0,0,0-.41.1.55.55,0,0,0-.15.45c0,.67,0,3.09,0,4a14.7,14.7,0,0,0,.23,3.61c0,.25.35.74,1.32,1,.27.1.47.29.47.42s-.23.23-.56.23c-.17,0-2.16-.16-3.51-.16-1,0-2.76.19-3.25.19-.3,0-.56-.06-.56-.29s.15-.26.5-.32c1.08-.23,1.34-.58,1.4-1.74.12-1.87.18-5,.18-6.87,0-4.38-.09-7.45-.15-8.77-.06-.87,0-1.41-1.23-1.67-.26,0-.55-.16-.55-.29s.26-.23.52-.23,1.76.07,2.67.07c1.82,0,1.58-.13,5-.13A6.81,6.81,0,0,1,50.63,72.1Zm-6.36-.32c-.09.06-.2.26-.23.93,0,.46-.09,6.87-.06,7.51,0,.23,0,.46.23.49a1.15,1.15,0,0,0,.41.06A5.74,5.74,0,0,0,47.26,80c.82-.65,1.23-1.68,1.23-3.45a5.56,5.56,0,0,0-1-3.67,2.87,2.87,0,0,0-2.41-1.33A1.33,1.33,0,0,0,44.27,71.78Z"/><path class="cls-2" d="M54.49,83.22a8,8,0,0,1,2.88-6.15A7.38,7.38,0,0,1,62,75.49c4.46,0,7.8,3.12,7.8,8.09a7.75,7.75,0,0,1-4.25,7.12,8.61,8.61,0,0,1-3.17.74C58,91.44,54.49,88.19,54.49,83.22Zm10,6.68c.74-1,1.35-2.91,1.35-6.36a13.94,13.94,0,0,0-1-5.25A3.32,3.32,0,0,0,62,76a2.92,2.92,0,0,0-2.43,1.68,11,11,0,0,0-1.2,5.48A10.41,10.41,0,0,0,60,89.38a3.69,3.69,0,0,0,2.58,1.51A2.1,2.1,0,0,0,64.51,89.9Z"/><path class="cls-2" d="M83,76.13c.12,0,.23.29.23.39,0,.67.06,2.42.06,2.61s-.06.48-.17.48-.24-.19-.3-.45a4.49,4.49,0,0,0-.76-1.77A3.73,3.73,0,0,0,78.9,76,3.5,3.5,0,0,0,76,77.42a10,10,0,0,0-1.73,5.77,10.28,10.28,0,0,0,1.29,5.09,5,5,0,0,0,4.13,2.45,3.52,3.52,0,0,0,1.82-.45,4.91,4.91,0,0,0,1.75-2.58c.06-.22.15-.38.36-.38s.08.29.08.54a7.42,7.42,0,0,1-.44,2,1,1,0,0,1-.38.61,8.92,8.92,0,0,1-4.6,1,7.4,7.4,0,0,1-7.94-7.86,7.68,7.68,0,0,1,3-6.45,9,9,0,0,1,5.33-1.64A16.46,16.46,0,0,1,83,76.13Z"/><path class="cls-2" d="M84.52,77.26c-.09-.55-.5-.71-1.08-.9-.12,0-.38-.16-.38-.33s.26-.16.43-.16c1,0,1.94.1,3.11.1.64,0,1.67-.1,2.55-.1.29,0,.44.07.44.23s-.12.19-.38.29c-.91.29-1,.22-1.06,2.38,0,1-.09,3.71,0,4.29,0,.16.09.29.44,0a15.41,15.41,0,0,0,1.53-1.52c.35-.38,2.69-3,3.37-4.06a1.27,1.27,0,0,0,.2-.55c0-.12-.26-.32-.79-.45-.23-.06-.35-.22-.35-.32s.26-.19.44-.19l2,0c.85,0,2-.13,2.14-.13.38,0,.5.13.5.26s-.27.22-.47.29a5.76,5.76,0,0,0-3,1.64c-.79.78-2.11,2-3,3.13a.27.27,0,0,0,0,.26c1.76,2.9,4.43,6.9,5.28,8A2.2,2.2,0,0,0,98,90.57a.63.63,0,0,1,.44.36c0,.13-.18.22-.35.22-.85,0-2-.22-3.32-.22-1.55,0-2,.09-2.78.09-.29,0-.5-.13-.5-.19s.15-.23.47-.32c.59-.16.56-.39.29-.91-1.2-2-3.51-5.38-3.66-5.6s-.2-.33-.35-.33-.15.2-.15.33c0,.32,0,2.45,0,3.67,0,1.71-.2,2.52,1.23,2.84.18.06.41.16.41.29s-.35.26-.49.26c-1,0-1.38-.13-3.11-.13-.76,0-2.46.16-2.75.16s-.5-.1-.5-.2.29-.29.52-.35a1.31,1.31,0,0,0,1-1.13c.06-.48.15-1.64.15-6.9Z"/><path class="cls-2" d="M106.83,76c2.49,0,5.89-.16,6.8-.16.5,0,.53.22.53.32,0,.61.08,1.71.14,2.32s-.06.74-.17.74-.21-.06-.33-.51c-.47-1.52-1-2-1.9-2.1s-2.37,0-2.87,0c-.06,0-.21.1-.21.19,0,.36-.06,5.74,0,6.16,0,.23.09.29.21.29,1,0,2.25-.06,2.69-.1s.71-.42,1-1.29a1.29,1.29,0,0,1,.29-.41c.12,0,.18.41.15.58,0,.41-.09,1.25-.09,2,0,.36.09,1.13.12,1.42,0,.06-.06.52-.18.52s-.29-.33-.32-.49c-.2-.77-.56-1.22-.85-1.25a18.06,18.06,0,0,0-2.69-.13c-.24,0-.36.09-.36.19-.06.45,0,4.06.09,5,0,.74.47,1.06,1.35,1.26.2.06.44.16.44.35s-.41.23-.56.23c-.67,0-1.78-.13-3.1-.13-1.56,0-2.41.13-3.14.13-.32,0-.53-.13-.53-.26s.18-.26.56-.32c.82-.13,1.11-.58,1.2-1.36.09-.58.09-3.38.09-5.93s0-4.67-.06-5.54c-.09-.71-.23-1-1.11-1.26-.24-.07-.44-.16-.44-.32s.23-.23.44-.23C105.16,75.84,106.57,76,106.83,76Z"/><path class="cls-2" d="M113.74,83.22a8,8,0,0,1,2.87-6.15,7.42,7.42,0,0,1,4.66-1.58c4.46,0,7.8,3.12,7.8,8.09a7.75,7.75,0,0,1-4.25,7.12,8.61,8.61,0,0,1-3.17.74C117.23,91.44,113.74,88.19,113.74,83.22Zm10,6.68c.74-1,1.35-2.91,1.35-6.36a13.75,13.75,0,0,0-1-5.25A3.3,3.3,0,0,0,121.27,76a2.92,2.92,0,0,0-2.43,1.68,11,11,0,0,0-1.2,5.48,10.41,10.41,0,0,0,1.64,6.25,3.69,3.69,0,0,0,2.58,1.51A2.1,2.1,0,0,0,123.76,89.9Z"/><path class="cls-2" d="M134.1,86.06c0,1.68.06,2.29.06,2.9.06,1.1.35,1.32,1.08,1.55.3.09.47.19.47.29s-.14.26-.58.26c-1,0-.85-.13-3.25-.13-.83,0-1.91.13-2.29.13-.15,0-.65,0-.65-.17s.3-.29.53-.35a1.38,1.38,0,0,0,1.12-1.48c0-1.36.08-2.84.08-6.29,0-3.29,0-4.51,0-5.32-.06-.55-.3-.9-1.12-1.09-.26-.07-.44-.16-.44-.29s.38-.23.53-.23c.53,0,2,.13,2.69.13,1,0,2.23-.13,3.2-.13,2.11,0,3.46.36,4.25,1.1a3.5,3.5,0,0,1,1.17,2.67A3.65,3.65,0,0,1,138.53,83a.14.14,0,0,0-.06.19,38.4,38.4,0,0,0,1.87,3.93,12.42,12.42,0,0,0,1.76,2.61,2.19,2.19,0,0,0,1.64.81c.38,0,.35.35,0,.48a7.53,7.53,0,0,1-2.2.2c-2,0-2.78-.29-3.81-2.07-.52-.87-1.08-1.9-2.13-4-.3-.61-.91-1.32-1.24-1.32a.33.33,0,0,0-.2,0c-.09,0-.09.25-.09.38Zm.27-9.54a1.2,1.2,0,0,0-.18.67c-.06.36-.12,5.42-.06,5.81s.09.32.21.32a4.94,4.94,0,0,0,1.14-.1,2.58,2.58,0,0,0,1.08-.55,3.3,3.3,0,0,0,.82-2.45,5.28,5.28,0,0,0-.55-2.64,2.23,2.23,0,0,0-2-1.19A1,1,0,0,0,134.37,76.52Z"/><path class="cls-2" d="M37.53,94.24c1.29,0,3.28.19,5.1.19.14,0,.29.29.35.42.91,2.39,5,11.7,5.68,13,.06.17.15.1.21,0,.44-.77,3.87-8.73,4.48-10.31.53-1.38.73-2,.91-2.61,0-.06.23-.52.38-.52,1.55,0,2.14-.19,4.34-.19.41,0,.55.13.55.26s-.29.29-.49.35c-1.7.33-1.73.78-1.82,2.52-.06,1.35,0,4.41,0,6,0,3.51.15,6.77.21,7.86.11,1.84.41,2.26,1.61,2.65.26.09.46.19.46.35s-.17.26-.52.26c-1.23,0-2.43-.19-3.69-.19s-2.88.13-3.26.13c-.17,0-.49,0-.49-.29s.29-.3.46-.36c1.18-.26,1.38-1.09,1.47-3.45.09-1.64.12-9.09.12-11,0-.06-.09-.39-.18-.13-1.9,4.48-4.86,11.48-5.89,14.31-.26.58-.38.81-.55.81s-.33-.45-.44-.71c-.91-2.58-5.34-13.47-5.89-14.73-.15-.29-.21-.32-.27.16-.11,1.16-.35,8.51-.35,11.12a14.09,14.09,0,0,0,.09,2.16,1.8,1.8,0,0,0,1.58,1.48c.26.07.47.2.47.33s-.26.29-.56.29c-.58,0-1.61-.13-2.57-.13s-1.73.16-2.11.16-.53-.1-.53-.26.06-.19.47-.36c.82-.28,1.29-.38,1.58-.87s.47-1.19.67-3.57c.18-1.81.59-8.12.59-10.8,0-1.9-.09-2.32-.67-3a2.53,2.53,0,0,0-1.47-.74c-.2-.06-.5-.16-.5-.35S37.38,94.24,37.53,94.24Z"/><path class="cls-2" d="M66.65,99c.17.61.47,1.42.7,2.22,1.41,4,3.14,9.06,4,11.09.53,1.23,1,1.39,1.59,1.55.29.13.49.16.49.32s-.41.23-.61.23c-.79,0-2.17-.13-2.78-.13-.82,0-2.11.09-3,.09-.18,0-.47-.09-.47-.22s.17-.26.38-.33c.67-.16.94-.32.79-.87-.26-1-1-3.19-1.23-3.67a.5.5,0,0,0-.44-.35,28,28,0,0,0-3.43,0c-.09,0-.26.19-.29.29a21.52,21.52,0,0,0-.94,2.64c-.26.93-.26,1.29,0,1.55a1.77,1.77,0,0,0,.88.45c.18.09.35.16.35.29s-.14.22-.5.22c-.17,0-1.31-.09-1.61-.09-.55,0-1.49.13-2,.13-.32,0-.53-.07-.53-.2s.18-.26.47-.32c.94-.23,1.32-.58,2-2.26.68-1.38,2.76-7.12,3.81-10.28a3.43,3.43,0,0,0,.21-.84.46.46,0,0,1,.14-.19A5.53,5.53,0,0,0,66.21,99c.09-.16.17-.26.26-.26S66.62,98.85,66.65,99Zm-.53,8.73c-.15-.51-1.46-4.28-1.55-4.41s-.15-.16-.21,0-1.43,3.9-1.52,4.45c0,.12-.06.29.15.29h1.34a17.44,17.44,0,0,0,1.76,0C66.21,108,66.15,107.84,66.12,107.71Z"/><path class="cls-2" d="M73.09,111.16a5,5,0,0,0,1.35,2.13,3.4,3.4,0,0,0,2.23,1,2.33,2.33,0,0,0,2.46-2.52c0-1.19-.94-2.22-2.55-3.32-2.49-1.74-3.49-3.16-3.49-5.19a4.08,4.08,0,0,1,1.79-3.61,6.08,6.08,0,0,1,3.05-.8,10.58,10.58,0,0,1,3,.42.34.34,0,0,1,.23.32,13.3,13.3,0,0,0,.21,2.19c0,.32,0,.48-.15.48s-.21-.16-.29-.41a5.46,5.46,0,0,0-1-1.75,2.86,2.86,0,0,0-1.85-.8,2.16,2.16,0,0,0-2.13,2.38,3,3,0,0,0,1.43,2.45c.91.74,1.85,1.33,2.4,1.74a5,5,0,0,1,2.38,4.26c0,2.9-2.52,4.67-5.51,4.67a12.12,12.12,0,0,1-3.43-.77.49.49,0,0,1-.26-.36c-.09-.45-.12-1.45-.27-2.38-.11-.48.06-.68.15-.68S73,110.81,73.09,111.16Z"/><path class="cls-2" d="M94.83,99.46c.12,0,.23.29.23.39,0,.68.06,2.42.06,2.61s-.06.48-.17.48-.24-.19-.3-.45a4.49,4.49,0,0,0-.76-1.77,3.73,3.73,0,0,0-3.19-1.39,3.49,3.49,0,0,0-2.93,1.42A10,10,0,0,0,86,106.52a10.28,10.28,0,0,0,1.29,5.09,5,5,0,0,0,4.13,2.45,3.52,3.52,0,0,0,1.82-.45A4.91,4.91,0,0,0,95,111c.06-.22.15-.38.36-.38s.08.29.08.54a7.42,7.42,0,0,1-.44,2,1,1,0,0,1-.38.61,8.92,8.92,0,0,1-4.6,1,7.4,7.4,0,0,1-7.94-7.86,7.68,7.68,0,0,1,3-6.45,9,9,0,0,1,5.33-1.64A16.46,16.46,0,0,1,94.83,99.46Z"/><path class="cls-2" d="M95.44,106.55a8,8,0,0,1,2.87-6.15A7.42,7.42,0,0,1,103,98.82c4.45,0,7.8,3.12,7.8,8.09a7.75,7.75,0,0,1-4.25,7.12,8.61,8.61,0,0,1-3.17.74C98.93,114.77,95.44,111.52,95.44,106.55Zm10,6.67c.73-1,1.35-2.9,1.35-6.34a13.77,13.77,0,0,0-1-5.26A3.3,3.3,0,0,0,103,99.3a2.92,2.92,0,0,0-2.43,1.68,11,11,0,0,0-1.2,5.48,10.41,10.41,0,0,0,1.64,6.25,3.69,3.69,0,0,0,2.58,1.51A2.1,2.1,0,0,0,105.46,113.22Z"/><path class="cls-2" d="M110.2,98.85c.06,0,.12,0,.21.1a1.77,1.77,0,0,0,.79.25c.35,0,2.81.1,5.19.1h3.07c2.79,0,3.08-.1,3.49-.26.15-.09.15-.09.2-.06a.2.2,0,0,1,0,.26,16.55,16.55,0,0,0,0,2.22c0,.42,0,.9-.23.9s-.24-.16-.29-.58c-.06-.22-.24-.87-.35-1.13A1.54,1.54,0,0,0,121,100c-.38,0-2.23,0-2.58.06-.09,0-.15.2-.18.39v8.44c0,1.36,0,3.1.09,3.81s.29,1,1.14,1.16c.3.06.47.19.47.32s-.26.23-.58.23c-.94,0-1.94-.13-3.14-.13-1.76,0-2.61.13-2.93.13s-.55-.1-.55-.23.23-.26.46-.29c1-.16,1.29-.35,1.35-1.55.12-2.29.18-11.76.18-12s0-.32-.12-.35a5.19,5.19,0,0,0-1.32-.13,12,12,0,0,0-1.49.07c-.74.12-1.17.67-1.47,2-.06.26-.14.52-.32.52s-.21-.16-.15-.65c.15-1.13.24-2.29.24-2.61A.37.37,0,0,1,110.2,98.85Z"/><line class="cls-3" x1="53.35" y1="73.6" x2="141.02" y2="73.6"/><line class="cls-3" x1="58.88" y1="96.76" x2="121.18" y2="96.76"/><path class="cls-4" d="M127.83,98.72a6,6,0,0,1-5,5.89c-.33,0-.57-.06-.57-.26s.14-.27.38-.37c1.18-.57,2.89-1.61,2.89-3.85a2.43,2.43,0,0,0-1.8-2.4c-1-.36-1.23-.68-1.23-1.46a2,2,0,0,1,1.94-1.82C126.22,94.45,127.83,96.06,127.83,98.72Z"/><path class="cls-4" d="M138.17,100A8.82,8.82,0,0,1,136,105.6c-2,2.51-2.66,3.19-4.36,5.19a.17.17,0,0,0,.11.29,29.65,29.65,0,0,0,4.16.16,15.43,15.43,0,0,0,2.44-.16c.49-.06.79-.32,1.2-.87.23-.42.35-.45.41-.45s.11.45,0,.77c-.24.52-.94,3.48-1,3.74s-.58.29-.76.29c-.94,0-4.6-.13-5.86-.13h-2.78c-.79,0-1.12,0-1.23-.19s.08-.39.26-.65a40.91,40.91,0,0,0,4.1-5.09,11.28,11.28,0,0,0,2.23-6.83c0-1.84-1-4-2.93-4a3.6,3.6,0,0,0-3,1.48c-.21.26-.35.42-.47.42s-.09-.35.06-.67a8.1,8.1,0,0,1,1.87-2.49,5.18,5.18,0,0,1,3.2-1.25A4.62,4.62,0,0,1,138.17,100Z"/><path class="cls-4" d="M150.56,98.76a9.61,9.61,0,0,1-2.32,6.06c-2.14,2.73-2.9,3.47-4.75,5.64a.19.19,0,0,0,.13.32,32.86,32.86,0,0,0,4.52.17,16,16,0,0,0,2.64-.17c.55-.07.86-.35,1.31-1,.26-.46.38-.49.45-.49s.12.49,0,.84c-.26.56-1,3.79-1.09,4.07s-.64.31-.83.31c-1,0-5-.14-6.37-.14h-3c-.86,0-1.21,0-1.34-.21s.1-.42.29-.7a45,45,0,0,0,4.46-5.54,12.35,12.35,0,0,0,2.42-7.43c0-2-1.05-4.31-3.19-4.31a3.87,3.87,0,0,0-3.21,1.62c-.23.28-.39.45-.51.45s-.1-.38.06-.74a8.62,8.62,0,0,1,2-2.69,5.52,5.52,0,0,1,3.47-1.37A5,5,0,0,1,150.56,98.76Z"/><line class="cls-3" x1="36.36" y1="116.12" x2="151.32" y2="116.12"/></g></svg>